<?xml version="1.0" encoding="iso-8859-1"?>
<!-- Generator: Adobe Illustrator 19.0.0, SVG Export Plug-In . SVG Version: 6.00 Build 0)  -->
<svg version="1.1" id="Capa_1" xmlns="http://www.w3.org/2000/svg" xmlns:xlink="http://www.w3.org/1999/xlink" x="0px" y="0px"
	 viewBox="0 0 512 512" style="enable-background:new 0 0 512 512;" xml:space="preserve">
<path style="fill:#D65B5B;" d="M154.185,166.661c0,0-18.567-77.25,64.656-112.565c27.716-11.813,43.956-29.045,53.416-44.238
	c8.422-13.525,28.288-13.03,36.113,0.85c19.819,35.156,39.281,91.275-1.155,136.824
	C305.008,148.268,154.185,166.661,154.185,166.661z"/>
<path style="fill:#BF4C4C;" d="M307.211,147.533c3.734-4.206,6.954-8.502,9.713-12.864l-5.791-50.332
	c0,0-71.062,17.593-136.93,1.548c-30.596,36.768-20.023,80.777-20.023,80.777S305.004,148.268,307.211,147.533z"/>
<path style="fill:#F46262;" d="M123.638,240.702c0,0-14.852-76.302,44.131-99.302c47.046-18.345,110.615-29.788,143.369-57.063
	c12.875-10.721,32.287-7.407,40.375,7.266c13.345,24.208,26.993,61.283,22.696,107.331L123.638,240.702z"/>
<path style="fill:#D65B5B;" d="M347.656,155.573c0,0-117.825,16.946-208.225,6.324c-25.034,31.342-15.797,78.805-15.797,78.805
	l224.022-37.343V155.573z"/>
<path style="fill:#FF737D;" d="M90.856,320.303c0,0-24.954-115.698,110.025-131.578c76.178-8.963,121.632-22.798,146.778-33.152
	c17.152-7.063,36.9,0.182,45.333,16.703c20.762,40.677,44.463,114.356-12.895,174.069C380.1,347.526,90.856,320.303,90.856,320.303z
	"/>
<g>
	<circle style="fill:#FFFFFF;" cx="334.448" cy="193.448" r="7.726"/>
	<circle style="fill:#FFFFFF;" cx="266.941" cy="234.191" r="7.726"/>
	<circle style="fill:#FFFFFF;" cx="160.142" cy="234.191" r="7.726"/>
	<circle style="fill:#FFFFFF;" cx="319.655" cy="122.571" r="7.726"/>
	<circle style="fill:#FFFFFF;" cx="224.662" cy="145.75" r="7.726"/>
	<circle style="fill:#FFFFFF;" cx="259.214" cy="66.488" r="7.726"/>
</g>
<path style="fill:#D7F3FF;" d="M420.823,254.123l-30.539,32.459c-6.901,7.336-18.629,7.105-25.237-0.496l-32.874-37.809
	c-7.222-8.305-20.051-8.511-27.536-0.441l-34.487,37.191c-7.636,8.234-20.662,8.234-28.298,0l-34.487-37.191
	c-7.483-8.07-20.314-7.864-27.536,0.441l-32.874,37.809c-6.609,7.601-18.336,7.83-25.237,0.496l-30.539-32.459
	c-9.108-9.681-25.214-1.467-22.727,11.591l33.937,178.113C109.926,483.383,144.511,512,184.777,512h142.444
	c40.268,0,74.852-28.617,82.389-68.173l33.937-178.113C446.036,252.657,429.931,244.443,420.823,254.123z"/>
<g>
	<path style="fill:#BDEBFF;" d="M327.223,512c40.268,0,74.852-28.617,82.389-68.173l33.937-178.113
		c2.488-13.057-13.618-21.271-22.727-11.591l-30.539,32.459c-6.901,7.336-18.629,7.105-25.237-0.496l-32.874-37.809
		c-7.222-8.305-20.052-8.51-27.536-0.441l-34.487,37.191c-3.818,4.117-8.983,6.176-14.15,6.176V512H327.223z"/>
	<path style="fill:#BDEBFF;" d="M241.852,285.029l-34.487-37.191c-7.483-8.07-20.314-7.864-27.536,0.441l-32.874,37.809
		c-3.55,4.083-8.576,6.017-13.539,5.816l41.787,219.532c3.149,0.36,6.341,0.564,9.575,0.564H256V291.204
		C250.835,291.204,245.669,289.145,241.852,285.029z"/>
</g>
<path style="fill:#A6E0F7;" d="M270.149,285.029l34.487-37.191c7.483-8.07,20.314-7.864,27.536,0.441l32.874,37.809
	c3.55,4.083,8.576,6.017,13.539,5.816l-41.787,219.532c-3.149,0.36-6.341,0.564-9.574,0.564H256V291.204
	C261.165,291.204,266.331,289.145,270.149,285.029z"/>
<g>
	<path style="fill:#57565C;" d="M339.091,387.053c-4.268,0-7.726-3.459-7.726-7.726V366.5c0-4.267,3.458-7.726,7.726-7.726
		s7.726,3.459,7.726,7.726v12.827C346.818,383.593,343.358,387.053,339.091,387.053z"/>
	<path style="fill:#57565C;" d="M172.909,387.053c-4.268,0-7.726-3.459-7.726-7.726V366.5c0-4.267,3.458-7.726,7.726-7.726
		c4.268,0,7.726,3.459,7.726,7.726v12.827C180.635,383.593,177.177,387.053,172.909,387.053z"/>
	<path style="fill:#57565C;" d="M256,395.143c-10,0-20-3.236-28.344-9.708c-3.372-2.616-3.985-7.469-1.369-10.841
		c2.614-3.373,7.469-3.986,10.84-1.37c11.113,8.62,26.634,8.62,37.747,0c3.37-2.616,8.225-2.003,10.84,1.37
		c2.616,3.372,2.003,8.225-1.369,10.841C276,391.907,266,395.143,256,395.143z"/>
</g>
<g>
</g>
<g>
</g>
<g>
</g>
<g>
</g>
<g>
</g>
<g>
</g>
<g>
</g>
<g>
</g>
<g>
</g>
<g>
</g>
<g>
</g>
<g>
</g>
<g>
</g>
<g>
</g>
<g>
</g>
</svg>
